<svg xmlns="http://www.w3.org/2000/svg" xml:space="preserve" id="Layer_1" x="0" y="0" style="enable-background:new 0 0 2760.7 923.6" version="1.1" viewBox="0 0 2760.7 923.6"><style>.st1{fill:#575756}</style><g id="bbs-light_1_"><path d="M610 881.1V42.5h301.2c107.9 0 190 19.8 246.2 59.3s84.4 97 84.4 172.2c0 43.4-10 80.4-30 111.2-20 30.7-49.3 53.4-88.1 68 43.8 11.5 77.4 33 100.8 64.5s35.1 69.9 35.1 115.2c0 82.2-26 143.9-78 185.2-52 41.3-129.1 62.3-231.3 63.1H610zm202.2-489h105.4c44.2-.4 75.6-8.4 94.5-24.3 18.8-15.7 28.2-39.1 28.2-69.9 0-35.4-10.2-61-30.5-76.5-20.4-15.6-53.2-23.4-98.5-23.4h-99.1v194.1zm0 132.5v201h132.5c36.5 0 64.5-8.4 84.1-25.1 19.6-16.7 29.4-40.2 29.4-70.6 0-69.9-34.8-105-104.3-105.4H812.2zM1331.8 880.3v-837h300.7c107.7 0 189.6 19.7 245.8 59.2s84.2 96.8 84.2 171.9c0 43.3-10 80.3-29.9 110.9s-49.2 53.3-88 67.8c43.7 11.5 77.2 33 100.6 64.4 23.4 31.4 35.1 69.7 35.1 115 0 82-26 143.6-77.9 184.8-51.9 41.2-128.9 62.2-230.8 62.9h-339.8zm201.8-488.1h105.2c44.1-.4 75.5-8.4 94.3-24.2 18.8-15.7 28.2-39 28.2-69.7 0-35.4-10.2-60.8-30.5-76.4-20.3-15.6-53.1-23.4-98.3-23.4h-98.9v193.7zm0 132.3v200.6h132.2c36.4 0 64.4-8.3 83.9-25s29.3-40.1 29.3-70.4c0-69.7-34.7-104.8-104-105.2h-141.4zM2502.5 653.5c0-28.9-10.2-51.4-30.6-67.5s-56.3-32.8-107.7-50c-51.4-17.2-93.3-33.9-125.9-50-106.1-52.1-159.1-123.7-159.1-214.8 0-45.4 13.2-85.4 39.6-120 26.4-34.7 63.8-61.7 112.2-81 48.4-19.3 102.7-29 163.1-29 58.8 0 111.6 10.5 158.3 31.5 46.7 21 82.9 50.9 108.8 89.7s38.8 83.1 38.8 133h-196.8c0-33.4-10.2-59.2-30.6-77.6s-48.1-27.6-82.9-27.6c-35.2 0-63.1 7.8-83.5 23.3-20.4 15.6-30.6 35.3-30.6 59.3 0 21 11.2 40 33.7 57.1 22.5 17.1 62 34.7 118.6 52.9 56.6 18.2 103.1 37.8 139.4 58.8 88.5 51 132.7 121.3 132.7 210.8 0 71.6-27 127.8-81 168.7s-128 61.3-222.1 61.3c-66.3 0-126.4-11.9-180.2-35.7-53.8-23.8-94.3-56.4-121.4-97.8s-40.8-89.1-40.8-143.1h197.9c0 43.9 11.3 76.2 34 97s59.5 31.2 110.5 31.2c32.6 0 58.4-7 77.3-21.1s28.3-33.9 28.3-59.4z" class="st1"/><path d="M60.8 43.3h395.7V439z" style="fill:#f9ba00"/></g></svg>